<?xml version="1.0" standalone="no"?>
<!DOCTYPE svg PUBLIC "-//W3C//DTD SVG 20010904//EN"
 "http://www.w3.org/TR/2001/REC-SVG-20010904/DTD/svg10.dtd">
<svg version="1.0" xmlns="http://www.w3.org/2000/svg"
 width="563.000000pt" height="563.000000pt" viewBox="0 0 563.000000 563.000000"
 preserveAspectRatio="xMidYMid meet">
<metadata>
Created by potrace 1.11, written by Peter Selinger 2001-2013
</metadata>
<g transform="translate(0.000000,563.000000) scale(0.100000,-0.100000)"
fill="#000000" stroke="none">
<path d="M3237 5114 c-1 -1 -34 -5 -72 -9 -61 -5 -142 -17 -210 -30 -11 -2
-33 -7 -50 -10 -131 -26 -315 -90 -472 -166 -79 -37 -143 -69 -143 -71 0 -2
82 -4 183 -3 267 0 412 -18 625 -80 312 -89 618 -256 836 -456 51 -47 53 -50
74 -146 50 -230 61 -336 56 -543 -3 -144 -5 -171 -25 -305 -79 -521 -359
-1013 -774 -1360 -38 -32 -72 -60 -75 -63 -29 -27 286 81 415 142 780 371
1277 1157 1269 2006 -1 105 -12 282 -19 304 -2 6 -7 29 -10 51 -3 22 -13 75
-22 119 -16 78 -17 79 -82 133 -222 185 -563 355 -844 422 -105 25 -233 48
-322 57 -66 7 -333 13 -338 8z"/>
<path d="M1945 4543 c-35 -4 -206 -30 -250 -38 -362 -69 -777 -282 -1053 -541
-72 -68 -73 -70 -82 -134 -66 -465 -6 -860 198 -1300 161 -348 530 -742 862
-920 l24 -13 -18 29 c-10 16 -34 51 -53 77 -50 71 -156 278 -202 394 -51 129
-94 280 -115 408 -10 55 -19 111 -22 125 -12 66 -16 354 -5 450 28 247 26 243
108 321 158 150 344 278 558 384 221 110 427 174 745 231 59 10 461 13 540 3
170 -20 361 -69 525 -134 30 -12 -46 65 -150 153 -240 201 -562 367 -860 441
-72 18 -177 38 -290 57 -43 6 -410 12 -460 7z"/>
<path d="M1688 3235 c-39 -157 -59 -333 -58 -503 0 -81 2 -160 4 -177 2 -16 7
-59 11 -95 42 -389 216 -798 475 -1119 206 -255 459 -454 761 -600 146 -71
337 -141 383 -141 55 0 287 107 448 207 416 257 743 669 903 1138 9 28 18 57
21 65 2 8 14 58 28 110 13 52 27 113 30 135 3 22 8 51 11 65 15 77 32 349 21
339 -3 -3 -22 -39 -42 -80 -200 -413 -551 -767 -964 -974 -143 -71 -298 -130
-340 -128 -106 3 -480 164 -669 287 -430 280 -747 693 -906 1181 -30 93 -74
281 -87 375 -2 15 -14 -18 -30 -85z"/>
</g>
</svg>
